<?xml version="1.0" encoding="UTF-8"?>
<svg width="512px" height="512px" viewBox="0 0 512 512" version="1.1" xmlns="http://www.w3.org/2000/svg" xmlns:xlink="http://www.w3.org/1999/xlink">
    <title>Creadiv</title>
    <defs>
        <path d="M146.141456,-5.90428975e-15 L365.858544,5.90428975e-15 C416.675112,-3.43056238e-15 435.102427,5.29105984 453.680205,15.2265641 C472.257983,25.1620684 486.837932,39.7420171 496.773436,58.3197949 C506.70894,76.8975727 512,95.3248882 512,146.141456 L512,365.858544 C512,416.675112 506.70894,435.102427 496.773436,453.680205 C486.837932,472.257983 472.257983,486.837932 453.680205,496.773436 C435.102427,506.70894 416.675112,512 365.858544,512 L146.141456,512 C95.3248882,512 76.8975727,506.70894 58.3197949,496.773436 C39.7420171,486.837932 25.1620684,472.257983 15.2265641,453.680205 C5.29105984,435.102427 2.28704159e-15,416.675112 -3.93619317e-15,365.858544 L3.93619317e-15,146.141456 C-2.28704159e-15,95.3248882 5.29105984,76.8975727 15.2265641,58.3197949 C25.1620684,39.7420171 39.7420171,25.1620684 58.3197949,15.2265641 C76.8975727,5.29105984 95.3248882,3.43056238e-15 146.141456,-5.90428975e-15 Z" id="path-1"></path>
        <linearGradient x1="50%" y1="50%" x2="50%" y2="110.141781%" id="linearGradient-3">
            <stop stop-color="#FFFFFF" offset="0%"></stop>
            <stop stop-color="#E5E5E5" offset="100%"></stop>
        </linearGradient>
        <linearGradient x1="0%" y1="31.154863%" x2="100%" y2="68.845137%" id="linearGradient-4">
            <stop stop-color="#1E222E" offset="0%"></stop>
            <stop stop-color="#141823" offset="100%"></stop>
        </linearGradient>
    </defs>
    <g id="Creadiv" stroke="none" stroke-width="1" fill="none" fill-rule="evenodd">
        <mask id="mask-2" fill="white">
            <use xlink:href="#path-1"></use>
        </mask>
        <g id="Path"></g>
        <rect id="Background" fill="url(#linearGradient-3)" mask="url(#mask-2)" x="0" y="0" width="512" height="512"></rect>
        <path d="M255.651327,159 L173.503156,353 C130.219211,342.784852 98,303.817855 98,257.306722 C98,203.556352 141.02927,159.881296 194.438357,159.01317 L196.059958,159 L255.651327,159 Z M315.940042,159 L317.561643,159.01317 C370.97073,159.881296 414,203.556352 414,257.306722 C414,303.817855 381.780789,342.784852 338.496844,353 L338.496844,353 L228.559073,353 L255.573,289.197 L261.575595,275.522033 L305.500798,275.522033 L299.336122,290.075629 L315.940042,290.075629 C333.992382,290.075629 348.626695,275.40449 348.626695,257.306722 C348.626695,242.865319 339.3083,230.60582 326.370557,226.241614 C323.094899,225.136657 319.587229,224.537815 315.940042,224.537815 L315.940042,224.537815 L282.949,224.537 L310.695866,159 L315.940042,159 Z M227.89704,224.537815 L196.059958,224.537815 C178.007618,224.537815 163.373305,239.208954 163.373305,257.306722 C163.373305,275.40449 178.007618,290.075629 196.059958,290.075629 L200.142211,290.075629 L227.89704,224.537815 Z M282.949,224.537 L255.573,289.197 L255.205,290.036 L282.937722,224.537815 L282.949,224.537 Z" id="Combined-Shape" fill="url(#linearGradient-4)" mask="url(#mask-2)"></path>
    </g>
</svg>